# xmcd
#
# Track frame offsets:
#	150
#	14993
#	24260
#	34570
#	48179
#	63765
#	76281
#	87085
#	97648
#	111934
#	125681
#	143516
#	161138
#
# Disc length: 2366 seconds
#
# Revision: 1
# Processed by: cddbd v1.5.2PL0 Copyright (c) Steve Scherf et al.
# Submitted via: audiograbber 1.83.01
#
DISCID=97093c0d
DTITLE=Pipes And Pints - Until we die
DYEAR=2009
DGENRE=Punk
TTITLE0=Intro - The Gael
TTITLE1=Lets go
TTITLE2=City by the sea
TTITLE3=All I know
TTITLE4=Kensington Club
TTITLE5=Bad times
TTITLE6=Fight the fight
TTITLE7=When the pipers play
TTITLE8=Heaven and hell
TTITLE9=Braveheart
TTITLE10=Criticized
TTITLE11=Different way
TTITLE12=Where is my America
EXTD=
EXTT0=
EXTT1=
EXTT2=
EXTT3=
EXTT4=
EXTT5=
EXTT6=
EXTT7=
EXTT8=
EXTT9=
EXTT10=
EXTT11=
EXTT12=
PLAYORDER=
